<svg width="100%" height="100%" viewBox="0 0 2328 512" version="1.1" xmlns="http://www.w3.org/2000/svg" xmlns:xlink="http://www.w3.org/1999/xlink" xml:space="preserve" xmlns:serif="http://www.serif.com/" style="fill-rule:evenodd;clip-rule:evenodd;stroke-linejoin:round;stroke-miterlimit:2;">
	<g>
		<g>
			<path d="M0,23.335l0,472.978l114.126,-0l0,-164.896l217.125,-0l0,-95.204l-217.125,-0l0,-117.674l405.674,-0l-105.188,-95.204l-414.612,-0Z" style="fill-rule:nonzero;" />
			<rect x="405.674" y="192.201" width="114.126" height="304.112" style="fill-rule:nonzero;" />
			<path d="M594.223,496.313l114.127,-0l-0,-325.678l275.808,327.03l128.998,-1.352l-404.806,-472.978l-114.127,-0l0,472.978Zm404.807,-254.056l114.126,127.704l0,-346.626l-114.126,-0l-0,218.922Z" style="fill-rule:nonzero;" />
		</g>
		<g>
			<path d="M1113.08,369.434c100.99,57.382 157.513,41.812 304.517,41.812c50.03,0 89.242,-13.527 89.242,-43.287c-0,-85.852 -331.82,-26.378 -331.82,-213.566c0,-104.061 97.249,-144.574 206.746,-144.574c37.16,-0 43.326,0.845 79.931,9.141l2.457,3.699l103.424,142.523c-44.691,-34.289 -121.023,-55.429 -181.079,-55.429c-50.031,0 -87.891,14.204 -87.891,46.669c-0,82.472 333.171,20.29 333.171,208.832c0,104.062 -108.055,145.927 -225.674,145.927c-25.193,-0 -141.556,-1.907 -166.728,-5.524l-126.296,-136.223Z" />
			<path d="M1529.89,22.659l205.444,283.112l0,189.866l114.127,0l-0,-193.92l-186.438,-279.058l-133.133,-0Z" style="fill-rule:nonzero;" />
			<path d="M1870.67,22.659l-70.385,94.451l-68.729,-94.451l139.114,-0Z" style="fill-rule:nonzero;" />
			<path d="M1923.06,399.015c69.339,-0.097 178.149,2.413 190.191,2.413c50.03,-0 89.242,-13.528 89.242,-43.288c-0,-85.852 -331.82,-26.378 -331.82,-213.566c-0,-104.06 97.249,-144.574 206.746,-144.574c90.595,0 189.232,27.009 248.663,69.549l-55.379,91.934c-43.222,-37.876 -125,-61.548 -188.552,-61.548c-50.03,-0 -87.89,14.203 -87.89,46.668c-0,82.472 333.171,20.291 333.171,208.832c-0,104.062 -108.056,145.927 -225.674,145.927c-10.721,0 -38.848,-3.833 -108.62,-5.725l-70.078,-96.622Z" />
		</g>
	</g>
</svg>
