<svg width="100%" height="100%" viewBox="0 0 361 75" version="1.1" xmlns="http://www.w3.org/2000/svg" xmlns:xlink="http://www.w3.org/1999/xlink" xml:space="preserve" xmlns:serif="http://www.serif.com/" style="fill-rule:evenodd;clip-rule:evenodd;stroke-linejoin:round;stroke-miterlimit:2;">
	<g transform="matrix(0.145639,0,0,0.145639,-7.5744,0)">
		<path d="M371.996,223.992C323.478,223.992 283.999,263.47 283.999,311.988C283.999,360.507 323.478,399.985 371.996,399.985C420.514,399.985 459.993,360.507 459.993,311.988C459.993,263.47 420.514,223.992 371.996,223.992ZM409.305,297.869C383.725,336.245 390.978,325.365 377.306,345.867C372.395,353.233 362.453,355.187 355.117,350.297L331.118,334.298C323.768,329.398 321.788,319.468 326.688,312.108C331.588,304.759 341.517,302.779 348.877,307.679L359.557,314.798C385.074,276.529 383.702,277.588 387.996,275.14C402.568,266.71 418.669,283.803 409.305,297.869ZM299.999,407.925L299.999,495.982C299.999,508.24 313.276,515.966 323.938,509.871L371.996,482.412L420.054,509.871C430.673,515.957 443.994,508.274 443.994,495.982L443.994,407.925C401.367,439.996 342.686,440.042 299.999,407.925ZM403.995,196.333L403.995,34.749C403.995,15.589 388.406,0 369.246,0L86.757,0C67.597,0 52.008,15.589 52.008,34.749L52.008,405.235C52.008,424.394 67.597,439.984 86.757,439.984L268,439.984C268,371.133 267.893,375.395 268.25,372.226C214.69,280.403 299.976,167.446 403.995,196.333ZM148.005,79.997L283.999,79.997C292.839,79.997 299.999,87.157 299.999,95.996C299.999,104.836 292.839,111.996 283.999,111.996L148.005,111.996C139.165,111.996 132.005,104.836 132.005,95.996C132.005,87.157 139.165,79.997 148.005,79.997ZM228.002,239.991L148.005,239.991C139.165,239.991 132.005,232.831 132.005,223.992C132.005,215.152 139.165,207.992 148.005,207.992L228.002,207.992C236.841,207.992 244.001,215.152 244.001,223.992C244.001,232.831 236.841,239.991 228.002,239.991ZM148.005,175.993C139.165,175.993 132.005,168.834 132.005,159.994C132.005,151.154 139.165,143.995 148.005,143.995L283.999,143.995C292.839,143.995 299.999,151.154 299.999,159.994C299.999,168.834 292.839,175.993 283.999,175.993L148.005,175.993Z" style="fill-rule:nonzero;" />
	</g>
	<g transform="matrix(0.47653,0,0,0.47653,-1284.43,-59.6481)">
		<path d="M2903.35,261.52C2931.56,261.52 2953.18,242.601 2956.72,215.574L2933.08,215.574C2930.37,229.763 2918.04,239.56 2903.01,239.56C2882.74,239.56 2870.74,223.851 2870.74,203.242C2870.74,181.958 2882.91,167.262 2903.01,167.262C2918.04,167.262 2930.37,177.059 2933.08,191.249L2956.72,191.249C2953.18,164.221 2931.56,145.302 2903.35,145.302C2869.9,145.302 2846.59,169.796 2846.59,203.242C2846.59,237.027 2869.39,261.52 2903.35,261.52Z" style="fill-rule:nonzero;" />
		<path d="M3045.75,222.499C3045.75,195.979 3029.53,178.58 3003.85,178.58C2980.37,178.58 2962.3,196.317 2962.3,219.966C2962.3,244.29 2980.54,261.52 3005.88,261.52C3027.67,261.52 3042.03,248.682 3045.41,233.479L3022.77,233.479C3020.24,238.885 3014.66,242.432 3005.54,242.432C2996.08,242.432 2987.47,237.196 2984.93,226.554L3045.75,226.554L3045.75,222.499ZM2985.1,212.702C2987.47,202.229 2995.41,197.499 3004.53,197.499C3014.5,197.499 3021.59,202.736 3023.45,212.702L2985.1,212.702Z" style="fill-rule:nonzero;" />
		<path d="M3099.63,199.181C3086.02,200.931 3078.69,209.589 3078.69,223.851L3078.69,260L3056.39,260L3056.39,180.1L3078.69,180.1L3078.69,193.783C3083.79,185.99 3091.14,180.975 3099.63,179.25L3099.63,199.181Z" />
		<g transform="matrix(1,0,0,1,-4.197,0)">
			<path d="M3163.82,240.236C3151.49,240.236 3148.11,237.027 3148.11,223.513L3148.11,199.019L3170.58,199.019L3170.58,180.1L3148.11,180.1L3148.11,161.688L3125.82,161.688L3125.82,180.1L3112.98,180.1L3112.98,199.019L3125.82,199.019L3125.82,222.499C3125.82,249.189 3136.8,260.169 3163.82,260.169L3171.93,260.169L3171.93,240.236L3163.82,240.236Z" style="fill-rule:nonzero;" />
		</g>
		<g transform="matrix(1,0,0,1,-4.197,0)">
			<path d="M3205.55,169.796L3205.55,148.85L3182.91,148.85L3182.91,169.796L3205.55,169.796ZM3205.55,260L3205.55,180.1L3183.25,180.1L3183.25,260L3205.55,260Z" style="fill-rule:nonzero;" />
		</g>
		<g transform="matrix(1,0,0,1,-4.197,0)">
			<path d="M3298.28,182.127L3249.47,182.127C3249.64,169.627 3253.35,166.755 3265.18,166.755L3273.28,166.755L3273.28,146.823L3265.18,146.823C3238.99,146.823 3227.84,157.127 3227.17,182.127L3214.5,182.127L3214.5,201.046L3227.17,201.046L3227.17,260.169L3249.47,260.169L3249.47,201.046L3275.99,201.046L3275.99,260L3298.28,260L3298.28,182.127Z" style="fill-rule:nonzero;" />
		</g>
		<g transform="matrix(1,0,0,1,-4.197,0)">
			<path d="M3392.04,222.499C3392.04,195.979 3375.82,178.58 3350.14,178.58C3326.66,178.58 3308.59,196.317 3308.59,219.966C3308.59,244.29 3326.83,261.52 3352.17,261.52C3373.96,261.52 3388.32,248.682 3391.7,233.479L3369.06,233.479C3366.53,238.885 3360.95,242.432 3351.83,242.432C3342.37,242.432 3333.76,237.196 3331.22,226.554L3392.04,226.554L3392.04,222.499ZM3331.39,212.702C3333.76,202.229 3341.7,197.499 3350.82,197.499C3360.78,197.499 3367.88,202.736 3369.74,212.702L3331.39,212.702Z" style="fill-rule:nonzero;" />
		</g>
		<g transform="matrix(1,0,0,1,-4.197,0)">
			<path d="M3424.98,260L3424.98,223.851C3424.98,207.803 3434.27,198.85 3451.33,198.85L3455.55,198.85L3455.55,178.58L3452.68,178.58C3441.36,178.58 3431.39,183.985 3424.98,193.783L3424.98,180.1L3402.68,180.1L3402.68,260L3424.98,260Z" style="fill-rule:nonzero;" />
		</g>
	</g>
</svg>
