<?xml version="1.0" encoding="UTF-8" standalone="no"?><!DOCTYPE svg PUBLIC "-//W3C//DTD SVG 1.1//EN" "http://www.w3.org/Graphics/SVG/1.1/DTD/svg11.dtd"><svg width="100%" height="100%" viewBox="0 0 3200 841" version="1.1" xmlns="http://www.w3.org/2000/svg" xmlns:xlink="http://www.w3.org/1999/xlink" xml:space="preserve" xmlns:serif="http://www.serif.com/" style="fill-rule:evenodd;clip-rule:evenodd;stroke-linejoin:round;stroke-miterlimit:2;"><g><path d="M106.645,840.658l-0,-106.645l213.29,0l-0,106.645l-213.29,0Zm213.29,-106.645l-0,-306.91l-106.645,0l-0,-106.645l213.29,0l-0,413.555l-106.645,0Zm-319.935,0l-0,-627.368l106.645,-0l-0,627.368l-106.645,0Zm106.645,-627.368l-0,-106.645l3093.36,0l0,106.645l-3093.36,-0Z" style="fill-rule:nonzero;"/><path d="M533.355,840.658l0,-640l426.58,0l-0,106.645l-319.935,0l0,106.776l319.935,-0l-0,106.645l-319.935,-0l0,213.289l319.935,0l-0,106.645l-426.58,0Z" style="fill-rule:nonzero;"/><path d="M1066.71,840.658l0,-640l106.645,0l0,106.645l106.645,0l0,106.776l-106.645,-0l0,426.579l-106.645,0Zm319.935,0l-0,-319.934l-106.645,-0l0,-106.645l106.645,-0l-0,-213.421l106.645,0l-0,640l-106.645,0Z" style="fill-rule:nonzero;"/><path d="M1813.36,840.658l0,-533.355l-213.29,0l0,-106.645l533.355,0l0,106.645l-213.42,0l0,533.355l-106.645,0Z" style="fill-rule:nonzero;"/><path d="M2240.07,840.658l0,-533.355l106.645,0l0,213.421l213.29,-0l0,-213.421l106.645,0l-0,533.355l-106.645,0l0,-213.289l-213.29,-0l0,213.289l-106.645,0Zm106.645,-533.355l0,-106.645l213.29,0l0,106.645l-213.29,0Z" style="fill-rule:nonzero;"/><path d="M2880.07,840.658l0,-106.645l213.29,0l0,106.645l-213.29,0Zm213.29,-106.645l0,-213.289l-106.645,-0l0,-106.645l213.29,-0l0,319.934l-106.645,0Zm-319.935,0l0,-426.71l106.645,0l0,426.71l-106.645,0Zm106.645,-426.71l0,-106.645l319.935,0l0,106.645l-319.935,0Z" style="fill-rule:nonzero;"/></g></svg>