<?xml version="1.0" encoding="UTF-8" standalone="no"?>
<!DOCTYPE svg PUBLIC "-//W3C//DTD SVG 1.1//EN" "http://www.w3.org/Graphics/SVG/1.1/DTD/svg11.dtd">
<svg width="100%" height="100%" viewBox="0 0 425 120" version="1.1" xmlns="http://www.w3.org/2000/svg" xmlns:xlink="http://www.w3.org/1999/xlink" xml:space="preserve" xmlns:serif="http://www.serif.com/" style="fill-rule:evenodd;clip-rule:evenodd;stroke-linejoin:round;stroke-miterlimit:2;">
    <path d="M181.982,20.081L80.431,20.081L83.832,0L203.511,0L201.729,86.642L201.405,97.33L202.701,97.33L205.454,86.642L232.175,0L255.496,0L213.875,118.059L184.401,118.059L181.982,20.081ZM63.103,118.059L78.326,31.256L99.865,31.256L84.642,118.059L63.103,118.059ZM93.549,118.059L108.934,31.256L129.177,31.256L128.043,42.592L129.501,42.592C133.388,34.495 141.485,29.636 150.392,29.636C165.939,29.636 174.036,40.811 170.15,63.645L160.433,118.059L139.056,118.059L148.449,64.131C150.392,53.119 147.477,47.612 138.894,47.612C130.796,47.612 126.586,53.281 124.966,62.026L115.088,118.059L93.549,118.059ZM269.261,119.679C245.131,119.679 234.443,104.618 238.005,81.945L241.892,59.596C245.617,37.896 258.411,29.636 275.577,29.636C300.679,29.636 310.234,44.697 306.833,67.37L302.784,89.881C299.059,111.42 286.428,119.679 269.261,119.679ZM269.423,101.703C275.901,101.703 279.464,98.14 281.083,89.557L285.78,62.512C287.561,53.119 283.836,47.774 275.577,47.774C268.613,47.774 265.051,51.823 263.755,59.758L259.22,85.184C257.439,95.711 259.706,101.703 269.423,101.703ZM326.266,118.059C317.036,118.059 312.663,112.391 314.12,103.97L323.999,48.26L312.177,48.26L315.254,31.256L326.914,31.256L331.773,4.696L353.312,4.696L348.453,31.256L361.409,31.256L358.332,48.26L345.538,48.26L336.145,101.217L349.101,101.217L346.024,118.059L326.266,118.059ZM386.511,119.679C363.838,119.679 352.178,104.78 356.389,81.135L360.113,59.92C364.162,37.086 377.442,29.636 394.122,29.636C417.443,29.636 427.807,45.021 424.082,67.856L421.977,80.488L378.09,80.488C377.766,82.755 377.442,84.86 377.118,87.127C375.498,97.492 379.223,102.189 387.482,102.189C393.474,102.189 397.361,98.788 398.981,90.69L419.872,90.69C416.957,110.61 404.001,119.679 386.511,119.679ZM381.652,59.92L380.519,67.046L403.353,67.046L404.001,62.997C405.621,53.928 402.382,47.774 393.798,47.774C386.511,47.774 382.948,51.985 381.652,59.92ZM63.103,0L42,119.679L0,119.679L21.103,0L63.103,0ZM32.699,53.328L24.116,42.907L16.456,49.418L25.04,59.839L12.781,70.261L18.144,76.772L30.403,66.351L38.987,76.772L46.647,70.261L38.063,59.839L50.322,49.418L44.958,42.907L32.699,53.328Z"/>
</svg>
