<?xml version="1.0" encoding="UTF-8" standalone="no"?>
<!DOCTYPE svg PUBLIC "-//W3C//DTD SVG 1.1//EN" "http://www.w3.org/Graphics/SVG/1.1/DTD/svg11.dtd">
<svg width="100%" height="100%" viewBox="0 0 1230 422" version="1.1" xmlns="http://www.w3.org/2000/svg" xmlns:xlink="http://www.w3.org/1999/xlink" xml:space="preserve" xmlns:serif="http://www.serif.com/" style="fill-rule:evenodd;clip-rule:evenodd;stroke-linejoin:round;stroke-miterlimit:2;">
	<g>
		<g>
			<g>
				<path d="M512.162,348.796c-46.076,0 -70.4,-22.453 -70.4,-55.665l36.954,0c0.468,16.84 10.525,27.833 34.849,27.833c18.711,-0 30.873,-6.783 30.873,-20.348c-0,-16.372 -8.888,-19.881 -39.761,-25.026c-39.292,-6.081 -59.406,-19.88 -59.406,-49.584c-0,-32.042 25.259,-51.922 66.657,-51.922c7.185,-0 37.479,0.323 43.356,4.138c5.295,3.437 6.288,9.313 4.907,14.137c-3.242,11.319 -33.294,9.323 -49.433,9.323c-17.073,0 -27.598,7.485 -27.598,19.647c-0,15.67 11.694,17.775 41.164,22.686c28.534,4.444 58.003,11.929 58.003,53.092c0,30.639 -23.622,51.689 -70.165,51.689Z" style="" />
				<path d="M657.405,348.796c31.574,0 54.729,-16.606 58.003,-41.865l-32.51,-0c-2.573,9.589 -12.396,15.904 -25.493,15.904c-17.308,-0 -28.768,-11.227 -28.534,-31.107l87.239,0c4.21,-41.632 -16.372,-72.738 -59.875,-72.738c-37.188,-0 -61.278,25.493 -61.278,65.955c0,38.358 23.155,63.851 62.448,63.851Zm-1.17,-103.845c14.267,-0 25.26,8.186 26.195,24.792l-53.326,-0c1.404,-15.203 11.461,-24.792 27.131,-24.792Z" style="fill-rule:nonzero;" />
				<path d="M735.055,346.691l34.381,0l-0,-69.698c-0,-15.904 9.823,-29.937 27.598,-29.937c16.606,-0 23.623,10.291 23.623,31.341l-0,68.294l34.381,0l-0,-75.779c-0,-37.655 -19.179,-51.922 -44.205,-51.922c-17.775,-0 -33.211,8.42 -39.994,25.025l-1.403,0l-1.404,-22.686l-32.977,-0l-0,125.362Z" style="fill-rule:nonzero;" />
				<path d="M917.953,346.691l27.364,0l0,-27.832l-15.202,-0c-6.549,-0 -10.057,-1.871 -10.057,-9.356l-0,-60.576l25.259,0l0,-27.598l-25.259,-0l-0,-37.422l-34.147,3.274l-0,34.148l-22.453,-0l-0,27.598l22.453,0l-0,67.125c-0,18.945 6.548,30.639 32.042,30.639Z" style="fill-rule:nonzero;" />
				<path d="M963.093,346.691l34.381,0l-0,-65.488c0.468,-18.711 10.057,-29.235 33.212,-29.235l12.527,-32.277l-11.826,0c-15.904,0 -29.002,5.614 -34.615,21.752l-1.169,-0l-1.404,-20.114l-31.106,-0l-0,125.362Z" style="fill-rule:nonzero;" />
				<path d="M1093.13,348.796c19.412,0 33.913,-9.589 39.761,-24.09l1.871,-0l-0,21.985l34.381,0l-0,-125.362l-32.978,-0l-1.403,21.751l-1.871,-0c-5.848,-14.501 -20.349,-24.09 -39.761,-24.09c-29.937,-0 -50.051,21.751 -50.051,65.02c-0,43.035 20.114,64.786 50.051,64.786Zm13.098,-27.832c-16.84,-0 -28.067,-11.695 -28.067,-36.954c0,-25.494 11.227,-37.188 28.067,-37.188c19.178,0 28.066,14.969 28.066,31.107l-0,11.928c-0,16.138 -8.888,31.107 -28.066,31.107Z" style="fill-rule:nonzero;" />
				<path d="M1195.11,346.691l34.381,0l0,-170.502l-34.381,7.718l0,162.784Z" style="fill-rule:nonzero;" />
			</g>
		</g>
		<g>
			<g>
				<g id="Colour">
					<g>
						<path d="M127.22,119.633l-54.138,172.029l-36.571,-21.114l90.709,-150.915Zm-14.095,173.844l191.247,54.418l-22.401,38.8l-168.846,-93.218Zm229.66,-170.665l36.571,21.114l-82.279,165.34l45.708,-186.454Zm-200.49,-80.607l168.876,93.219l-191.277,-54.42l22.401,-38.799Zm172.381,116.815l-41.45,154.698l-163.608,-43.838l41.45,-154.698l163.608,43.838Zm-83.009,-5.029l-15.047,24.766l-8.471,-27.713c-0.332,-1.086 -1.384,-1.786 -2.514,-1.673c-1.13,0.113 -2.022,1.008 -2.133,2.138l-2.812,28.842l-19.656,-21.293c-0.77,-0.834 -2.022,-1.009 -2.991,-0.417c-0.969,0.592 -1.385,1.786 -0.994,2.852l9.981,27.206l-26.948,-10.656c-1.056,-0.418 -2.26,-0.032 -2.876,0.922c-0.616,0.954 -0.473,2.21 0.342,3.001l20.796,20.181l-28.903,2.092c-1.132,0.081 -2.049,0.952 -2.19,2.078c-0.141,1.127 0.533,2.196 1.61,2.555l27.493,9.159l-25.133,14.426c-0.985,0.565 -1.434,1.747 -1.072,2.823c0.362,1.076 1.433,1.747 2.559,1.603l28.744,-3.676l-16.385,23.901c-0.642,0.937 -0.533,2.196 0.26,3.009c0.792,0.813 2.049,0.953 3.001,0.334l24.303,-15.784l-4.392,28.644c-0.172,1.122 0.472,2.21 1.539,2.598c1.067,0.389 2.259,-0.03 2.849,-1.001l15.047,-24.765l8.471,27.712c0.332,1.086 1.385,1.787 2.514,1.674c1.13,-0.113 2.023,-1.008 2.133,-2.139l2.812,-28.841l19.656,21.293c0.77,0.834 2.022,1.008 2.991,0.416c0.969,-0.592 1.385,-1.786 0.994,-2.851l-9.981,-27.206l26.948,10.656c1.056,0.417 2.26,0.031 2.876,-0.923c0.616,-0.953 0.473,-2.209 -0.342,-3l-20.796,-20.181l28.903,-2.092c1.132,-0.082 2.049,-0.952 2.19,-2.079c0.142,-1.126 -0.532,-2.196 -1.61,-2.555l-27.493,-9.159l25.133,-14.425c0.985,-0.565 1.434,-1.747 1.072,-2.824c-0.361,-1.076 -1.433,-1.747 -2.559,-1.603l-28.744,3.677l16.385,-23.902c0.642,-0.936 0.533,-2.196 -0.259,-3.009c-0.793,-0.812 -2.05,-0.952 -3.002,-0.334l-24.302,15.784l4.392,-28.644c0.172,-1.122 -0.473,-2.209 -1.539,-2.598c-1.067,-0.388 -2.26,0.031 -2.85,1.001Z" style="" />
					</g>
				</g>
				<path d="M369.737,62.519c25.46,0 46.13,20.67 46.13,46.129c-0,25.46 -20.67,46.13 -46.13,46.13c-25.459,-0 -46.129,-20.67 -46.129,-46.13c0,-25.459 20.67,-46.129 46.129,-46.129Zm0,24.046c-12.188,-0 -22.083,9.895 -22.083,22.083c-0,12.188 9.895,22.084 22.083,22.084c12.189,-0 22.084,-9.896 22.084,-22.084c-0,-12.188 -9.895,-22.083 -22.084,-22.083Z" style="" />
				<path d="M585.452,134.211c22.143,0 40.12,17.977 40.12,40.119c-0,22.143 -17.977,40.12 -40.12,40.12c-22.142,-0 -40.119,-17.977 -40.119,-40.12c0,-22.142 17.977,-40.119 40.119,-40.119Zm0,20.913c-10.6,0 -19.206,8.606 -19.206,19.206c0,10.601 8.606,19.207 19.206,19.207c10.601,-0 19.207,-8.606 19.207,-19.207c-0,-10.6 -8.606,-19.206 -19.207,-19.206Z" style="" />
				<path d="M97.068,-0c25.459,-0 46.129,20.67 46.129,46.129c-0,25.46 -20.67,46.129 -46.129,46.129c-25.46,0 -46.13,-20.669 -46.13,-46.129c0,-25.459 20.67,-46.129 46.13,-46.129Zm-0,24.046c-12.189,-0 -22.084,9.895 -22.084,22.083c0,12.188 9.895,22.084 22.084,22.084c12.188,-0 22.083,-9.896 22.083,-22.084c0,-12.188 -9.895,-22.083 -22.083,-22.083Z" style="" />
				<path d="M315.318,328.985c25.459,-0 46.129,20.67 46.129,46.129c0,25.46 -20.67,46.129 -46.129,46.129c-25.46,0 -46.129,-20.669 -46.129,-46.129c-0,-25.459 20.669,-46.129 46.129,-46.129Zm-0,24.046c-12.188,-0 -22.084,9.895 -22.084,22.083c0,12.188 9.896,22.084 22.084,22.084c12.188,-0 22.083,-9.896 22.083,-22.084c0,-12.188 -9.895,-22.083 -22.083,-22.083Z" style="" />
				<path d="M46.129,255.963c25.46,0 46.129,20.67 46.129,46.129c0,25.46 -20.669,46.13 -46.129,46.13c-25.459,-0 -46.129,-20.67 -46.129,-46.13c0,-25.459 20.67,-46.129 46.129,-46.129Zm0,24.046c-12.188,-0 -22.083,9.895 -22.083,22.083c-0,12.189 9.895,22.084 22.083,22.084c12.188,-0 22.084,-9.895 22.084,-22.084c-0,-12.188 -9.896,-22.083 -22.084,-22.083Z" style="" />
			</g>
		</g>
	</g>
</svg>
