<?xml version="1.0" encoding="UTF-8" standalone="no"?><!DOCTYPE svg PUBLIC "-//W3C//DTD SVG 1.1//EN" "http://www.w3.org/Graphics/SVG/1.1/DTD/svg11.dtd"><svg width="100%" height="100%" viewBox="0 0 1466 555" version="1.1" xmlns="http://www.w3.org/2000/svg" xmlns:xlink="http://www.w3.org/1999/xlink" xml:space="preserve" xmlns:serif="http://www.serif.com/" style="fill-rule:evenodd;clip-rule:evenodd;stroke-linejoin:round;stroke-miterlimit:2;"><rect x="628.216" y="273" width="35.012" height="277.76" style="fill-rule:nonzero;"/><path d="M781.49,554.65c-16.858,-0 -32.159,-4.215 -45.905,-12.643c-13.745,-8.429 -24.573,-19.905 -32.483,-34.429c-7.91,-14.523 -11.865,-30.862 -11.865,-49.016c0,-18.154 3.955,-34.493 11.865,-49.017c7.91,-14.523 18.673,-26.064 32.289,-34.622c13.615,-8.559 28.982,-12.838 46.099,-12.838c14.004,0 26.518,2.918 37.54,8.753c11.022,5.835 19.905,13.875 26.648,24.119c6.743,10.244 10.503,22.11 11.281,35.596l0,55.629c-0.778,13.227 -4.473,25.027 -11.087,35.401c-6.613,10.374 -15.431,18.479 -26.453,24.314c-11.022,5.835 -23.665,8.753 -37.929,8.753Zm5.835,-33.067c17.376,0 31.381,-5.9 42.014,-17.7c10.633,-11.801 15.95,-26.907 15.95,-45.321c-0,-12.708 -2.399,-23.795 -7.197,-33.261c-4.798,-9.466 -11.606,-16.858 -20.424,-22.174c-8.817,-5.317 -19.062,-7.975 -30.732,-7.975c-11.671,-0 -21.98,2.723 -30.927,8.169c-8.948,5.446 -15.95,12.903 -21.007,22.369c-5.058,9.466 -7.586,20.294 -7.586,32.483c-0,12.449 2.528,23.406 7.586,32.872c5.057,9.466 12.124,16.922 21.201,22.369c9.077,5.446 19.451,8.169 31.122,8.169Zm55.63,29.177l-0,-49.795l6.613,-45.126l-6.613,-44.737l-0,-45.127l35.4,0l0,184.785l-35.4,-0Z" style="fill-rule:nonzero;"/><path d="M1014.9,554.65c-14.004,-0 -26.647,-2.918 -37.929,-8.753c-11.282,-5.835 -20.294,-13.94 -27.037,-24.314c-6.743,-10.374 -10.503,-22.174 -11.281,-35.401l-0,-55.629c0.778,-13.486 4.603,-25.352 11.476,-35.596c6.872,-10.244 15.949,-18.284 27.231,-24.119c11.282,-5.835 23.795,-8.753 37.54,-8.753c16.858,0 32.094,4.279 45.71,12.838c13.616,8.558 24.314,20.099 32.094,34.622c7.781,14.524 11.671,30.863 11.671,49.017c-0,18.154 -3.89,34.493 -11.671,49.016c-7.78,14.524 -18.478,26 -32.094,34.429c-13.616,8.428 -28.852,12.643 -45.71,12.643Zm-5.835,-33.067c11.671,0 21.915,-2.723 30.733,-8.169c8.817,-5.447 15.82,-12.903 21.007,-22.369c5.187,-9.466 7.78,-20.423 7.78,-32.872c0,-12.189 -2.593,-23.082 -7.78,-32.678c-5.187,-9.596 -12.19,-17.052 -21.007,-22.368c-8.818,-5.317 -18.933,-7.975 -30.344,-7.975c-11.67,-0 -21.915,2.658 -30.732,7.975c-8.818,5.316 -15.691,12.772 -20.619,22.368c-4.927,9.596 -7.391,20.618 -7.391,33.067c0,12.189 2.399,23.017 7.197,32.483c4.798,9.466 11.671,16.922 20.618,22.369c8.947,5.446 19.127,8.169 30.538,8.169Zm-91.42,29.177l0,-277.76l35.012,-0l0,138.102l-6.613,44.737l6.613,45.126l0,49.795l-35.012,-0Z" style="fill-rule:nonzero;"/><path d="M1191.13,554.65c-10.374,-0 -20.164,-1.362 -29.371,-4.085c-9.207,-2.723 -17.7,-6.613 -25.48,-11.67c-7.781,-5.058 -14.524,-11.088 -20.23,-18.09l22.564,-22.563c6.743,8.299 14.523,14.459 23.341,18.478c8.818,4.02 18.673,6.03 29.565,6.03c10.893,0 19.322,-1.88 25.287,-5.641c5.965,-3.76 8.947,-9.012 8.947,-15.755c0,-6.743 -2.399,-11.995 -7.197,-15.755c-4.798,-3.761 -10.957,-6.873 -18.478,-9.337c-7.521,-2.463 -15.496,-4.927 -23.925,-7.391c-8.429,-2.464 -16.404,-5.641 -23.925,-9.531c-7.521,-3.89 -13.68,-9.207 -18.478,-15.95c-4.798,-6.743 -7.197,-15.69 -7.197,-26.842c0,-11.152 2.723,-20.813 8.169,-28.982c5.447,-8.17 13.033,-14.459 22.758,-18.868c9.726,-4.408 21.461,-6.613 35.206,-6.613c14.524,0 27.426,2.529 38.708,7.586c11.281,5.057 20.553,12.643 27.815,22.758l-22.563,22.563c-5.187,-6.743 -11.606,-11.93 -19.257,-15.561c-7.651,-3.631 -16.274,-5.446 -25.87,-5.446c-10.114,-0 -17.83,1.75 -23.146,5.251c-5.317,3.502 -7.975,8.364 -7.975,14.589c-0,6.224 2.334,11.022 7.002,14.393c4.668,3.372 10.828,6.225 18.479,8.559c7.65,2.334 15.625,4.733 23.924,7.197c8.299,2.464 16.209,5.77 23.73,9.92c7.521,4.149 13.681,9.725 18.479,16.728c4.798,7.002 7.197,16.209 7.197,27.62c-0,17.376 -6.16,31.122 -18.479,41.236c-12.319,10.115 -28.852,15.172 -49.6,15.172Z" style="fill-rule:nonzero;"/><path d="M688.127,134.87l-59.911,-0l-0,97.983l59.911,0l-0,-97.983Zm132.097,-0l-59.911,-0l-0,97.983l59.911,0l-0,-97.983Zm132.531,-0l-59.911,-0l0,97.983l59.911,0l0,-97.983Zm-324.539,-42.113l59.911,-0l-0,4.089c-0,-26.941 15.654,-43.019 36.962,-43.019c22.178,0 35.224,15.209 35.224,40.846l-0,-1.916l59.911,-0l-0,4.523c-0,-27.375 15.219,-43.453 36.962,-43.453c22.178,0 35.658,16.078 35.658,43.019l0,-4.089l59.911,-0l0,-9.816c0,-48.648 -25.614,-82.941 -77.305,-82.941c-30.44,0 -53.922,13.023 -67.382,33.859c-11.722,-20.836 -32.995,-33.859 -62.106,-33.859c-30.874,0 -50.878,16.495 -59.138,32.123l0,-26.474l-58.608,-0l-0,87.108Z" style="fill-rule:nonzero;"/><path d="M1238.7,5.649l-116.889,-0l-30.148,87.108l59.584,-0l33.136,-87.108l63.442,111.213l-149.48,114.96l36.882,-96.952l-128.904,-0l36.404,92.35l-41.991,110.411l57.358,0l39.859,-104.778l86.43,0l96.9,-71.245l48.233,71.245l65.18,0l-72.975,-105.867l143.741,-121.337l-84.226,-0l-92.974,79.198l-49.562,-79.198Zm-189.111,87.108l-29.892,-87.108l-64.311,-0l35.495,87.108l58.708,-0Z" style="fill-rule:nonzero;"/><path d="M69.083,554.65l-69.083,-0l0,-554.65l554.65,0l-0,554.65l-68.1,-0l0,-288.418l-88.235,0l-118.166,288.418l-4.665,-0l-118.165,-288.418l-88.236,0l0,288.418Zm144.274,-0l-144.274,-0l69.189,-68.141l0,-108.952l3.693,0l71.392,177.093Zm273.193,-0l-144.191,-0l71.309,-176.509l3.693,-0l0,108.368l69.189,68.141Zm-163.473,-197.04l24.727,-92.281l-92.281,-24.727l-24.727,92.282l92.281,24.726Zm-8.704,-72.98l-39.549,-10.597l-10.597,39.549l39.549,10.598l10.597,-39.55Zm-116.06,-27.154l67.554,-67.554l-67.554,-67.555l-67.555,67.555l67.555,67.554Zm277.926,-79.022l-47.769,-82.737l-82.737,47.768l47.768,82.738l82.738,-47.769Zm-248.974,11.468l-28.952,-28.952l-28.952,28.952l28.952,28.952l28.952,-28.952Zm191.214,-56.918l-35.459,20.472l20.473,35.459l35.458,-20.472l-20.472,-35.459Zm-256.178,-20.25l-47.768,-82.737l-82.737,47.768l47.768,82.737l82.737,-47.768Zm112.407,28.584l82.737,-47.768l-47.768,-82.737l-82.737,47.768l47.768,82.737Zm-170.166,-74.034l-35.459,20.472l20.472,35.459l35.459,-20.472l-20.472,-35.459Zm215.616,16.275l-20.472,-35.459l-35.459,20.472l20.472,35.459l35.459,-20.472Z"/></svg>