<?xml version="1.0" encoding="UTF-8" standalone="no"?><!DOCTYPE svg PUBLIC "-//W3C//DTD SVG 1.1//EN" "http://www.w3.org/Graphics/SVG/1.1/DTD/svg11.dtd"><svg width="100%" height="100%" viewBox="0 0 2579 555" version="1.1" xmlns="http://www.w3.org/2000/svg" xmlns:xlink="http://www.w3.org/1999/xlink" xml:space="preserve" xmlns:serif="http://www.serif.com/" style="fill-rule:evenodd;clip-rule:evenodd;stroke-linejoin:round;stroke-miterlimit:2;"><rect x="1769.73" y="59.158" width="44.893" height="356.154" style="fill-rule:nonzero;"/><path d="M1966.26,420.3c-21.615,-0 -41.235,-5.404 -58.86,-16.212c-17.625,-10.807 -31.509,-25.522 -41.651,-44.145c-10.143,-18.622 -15.214,-39.572 -15.214,-62.85c0,-23.278 5.071,-44.229 15.214,-62.851c10.142,-18.622 23.943,-33.42 41.402,-44.394c17.458,-10.974 37.161,-16.461 59.109,-16.461c17.957,-0 34.003,3.741 48.136,11.223c14.133,7.482 25.522,17.791 34.168,30.927c8.647,13.135 13.468,28.349 14.466,45.641l0,71.331c-0.998,16.959 -5.736,32.09 -14.216,45.392c-8.48,13.301 -19.786,23.693 -33.92,31.176c-14.133,7.482 -30.344,11.223 -48.634,11.223Zm7.482,-42.399c22.281,-0 40.238,-7.566 53.872,-22.696c13.634,-15.131 20.452,-34.502 20.452,-58.112c-0,-16.295 -3.076,-30.511 -9.228,-42.649c-6.153,-12.138 -14.882,-21.615 -26.188,-28.432c-11.307,-6.817 -24.442,-10.226 -39.407,-10.226c-14.964,-0 -28.183,3.492 -39.655,10.475c-11.473,6.983 -20.452,16.544 -26.936,28.682c-6.485,12.138 -9.727,26.021 -9.727,41.651c-0,15.962 3.242,30.012 9.727,42.15c6.484,12.138 15.546,21.698 27.185,28.682c11.639,6.983 24.941,10.475 39.905,10.475Zm71.331,37.411l-0,-63.849l8.48,-57.862l-8.48,-57.364l-0,-57.862l45.392,-0l-0,236.937l-45.392,-0Z" style="fill-rule:nonzero;"/><path d="M2265.55,420.3c-17.958,-0 -34.169,-3.741 -48.635,-11.223c-14.465,-7.483 -26.021,-17.875 -34.667,-31.176c-8.646,-13.302 -13.468,-28.433 -14.466,-45.392l0,-71.331c0.998,-17.292 5.903,-32.506 14.715,-45.641c8.812,-13.136 20.452,-23.445 34.917,-30.927c14.466,-7.482 30.511,-11.223 48.136,-11.223c21.615,-0 41.152,5.487 58.61,16.461c17.459,10.974 31.176,25.772 41.153,44.394c9.976,18.622 14.964,39.573 14.964,62.851c0,23.278 -4.988,44.228 -14.964,62.85c-9.977,18.623 -23.694,33.338 -41.153,44.145c-17.458,10.808 -36.995,16.212 -58.61,16.212Zm-7.482,-42.399c14.964,-0 28.099,-3.492 39.406,-10.475c11.306,-6.984 20.285,-16.544 26.936,-28.682c6.651,-12.138 9.976,-26.188 9.976,-42.15c0,-15.63 -3.325,-29.596 -9.976,-41.901c-6.651,-12.304 -15.63,-21.864 -26.936,-28.681c-11.307,-6.817 -24.276,-10.226 -38.908,-10.226c-14.964,-0 -28.1,3.409 -39.406,10.226c-11.306,6.817 -20.119,16.377 -26.437,28.681c-6.319,12.305 -9.478,26.438 -9.478,42.4c0,15.629 3.076,29.513 9.228,41.651c6.152,12.138 14.965,21.698 26.438,28.682c11.472,6.983 24.525,10.475 39.157,10.475Zm-117.222,37.411l0,-356.154l44.893,0l0,177.079l-8.479,57.364l8.479,57.862l0,63.849l-44.893,-0Z" style="fill-rule:nonzero;"/><path d="M2491.51,420.3c-13.302,-0 -25.856,-1.746 -37.661,-5.238c-11.805,-3.491 -22.696,-8.48 -32.672,-14.964c-9.976,-6.485 -18.623,-14.216 -25.939,-23.195l28.932,-28.931c8.646,10.641 18.622,18.539 29.929,23.693c11.306,5.155 23.943,7.732 37.91,7.732c13.966,0 24.774,-2.411 32.422,-7.233c7.649,-4.822 11.473,-11.556 11.473,-20.202c0,-8.646 -3.076,-15.38 -9.228,-20.202c-6.152,-4.822 -14.05,-8.812 -23.694,-11.971c-9.643,-3.159 -19.869,-6.319 -30.677,-9.478c-10.807,-3.159 -21.033,-7.233 -30.677,-12.221c-9.644,-4.988 -17.541,-11.805 -23.693,-20.451c-6.152,-8.646 -9.229,-20.119 -9.229,-34.418c0,-14.3 3.492,-26.687 10.476,-37.162c6.983,-10.475 16.71,-18.539 29.18,-24.192c12.471,-5.654 27.518,-8.48 45.143,-8.48c18.622,-0 35.166,3.242 49.632,9.727c14.466,6.484 26.354,16.211 35.665,29.18l-28.931,28.931c-6.651,-8.646 -14.881,-15.297 -24.691,-19.952c-9.81,-4.656 -20.867,-6.984 -33.171,-6.984c-12.97,0 -22.863,2.245 -29.68,6.734c-6.817,4.49 -10.226,10.725 -10.226,18.706c0,7.981 2.993,14.133 8.979,18.456c5.986,4.323 13.884,7.981 23.694,10.974c9.81,2.993 20.035,6.069 30.677,9.228c10.641,3.159 20.784,7.399 30.427,12.72c9.644,5.321 17.542,12.47 23.694,21.449c6.152,8.979 9.228,20.784 9.228,35.416c0,22.28 -7.898,39.905 -23.693,52.874c-15.796,12.969 -36.996,19.454 -63.599,19.454Z" style="fill-rule:nonzero;"/><path d="M772.995,294.661l-76.819,0l-0,125.639l76.819,-0l0,-125.639Zm169.38,0l-76.82,0l-0,125.639l76.82,-0l-0,-125.639Zm169.936,0l-76.82,0l0,125.639l76.82,-0l-0,-125.639Zm-416.135,-53.998l76.819,0l0,5.243c0,-34.544 20.073,-55.16 47.395,-55.16c28.437,0 45.165,19.501 45.165,52.374l-0,-2.457l76.82,0l-0,5.8c-0,-35.101 19.515,-55.717 47.394,-55.717c28.437,0 45.722,20.616 45.722,55.16l0,-5.243l76.82,0l-0,-12.586c-0,-62.378 -32.843,-106.35 -99.123,-106.35c-39.031,0 -69.141,16.698 -86.4,43.415c-15.03,-26.717 -42.306,-43.415 -79.634,-43.415c-39.588,0 -65.237,21.151 -75.828,41.189l-0,-33.946l-75.15,0l-0,111.693Z" style="fill-rule:nonzero;"/><path d="M1478.96,128.97l-149.879,0l-38.657,111.693l76.401,0l42.489,-111.693l81.346,142.602l-191.668,147.405l47.291,-124.316l-165.284,0l46.678,118.415l-53.842,141.574l73.546,-0l51.108,-134.35l110.825,-0l124.248,-91.353l61.846,91.353l83.575,-0l-93.571,-135.747l184.31,-155.583l-107.997,0l-119.215,101.551l-63.55,-101.551Zm-242.484,111.693l-38.329,-111.693l-82.461,0l45.513,111.693l75.277,0Z" style="fill-rule:nonzero;"/><path d="M69.083,554.65l-69.083,-0l0,-554.65l554.65,0l-0,554.65l-68.1,-0l0,-288.418l-88.235,0l-118.166,288.418l-4.665,-0l-118.165,-288.418l-88.236,0l0,288.418Zm144.274,-0l-144.274,-0l69.189,-68.141l0,-108.952l3.693,0l71.392,177.093Zm273.193,-0l-144.191,-0l71.309,-176.509l3.693,-0l0,108.368l69.189,68.141Zm-163.473,-197.04l24.727,-92.281l-92.281,-24.727l-24.727,92.282l92.281,24.726Zm-8.704,-72.98l-39.549,-10.597l-10.597,39.549l39.549,10.598l10.597,-39.55Zm-116.06,-27.154l67.554,-67.554l-67.554,-67.555l-67.555,67.555l67.555,67.554Zm277.926,-79.022l-47.769,-82.737l-82.737,47.768l47.768,82.738l82.738,-47.769Zm-248.974,11.468l-28.952,-28.952l-28.952,28.952l28.952,28.952l28.952,-28.952Zm191.214,-56.918l-35.459,20.472l20.473,35.459l35.458,-20.472l-20.472,-35.459Zm-256.178,-20.25l-47.768,-82.737l-82.737,47.768l47.768,82.737l82.737,-47.768Zm112.407,28.584l82.737,-47.768l-47.768,-82.737l-82.737,47.768l47.768,82.737Zm-170.166,-74.034l-35.459,20.472l20.472,35.459l35.459,-20.472l-20.472,-35.459Zm215.616,16.275l-20.472,-35.459l-35.459,20.472l20.472,35.459l35.459,-20.472Z"/></svg>