<?xml version="1.0" encoding="UTF-8" standalone="no"?><!DOCTYPE svg PUBLIC "-//W3C//DTD SVG 1.1//EN" "http://www.w3.org/Graphics/SVG/1.1/DTD/svg11.dtd"><svg width="100%" height="100%" viewBox="0 0 2134 2134" version="1.1" xmlns="http://www.w3.org/2000/svg" xmlns:xlink="http://www.w3.org/1999/xlink" xml:space="preserve" xmlns:serif="http://www.serif.com/" style="fill-rule:evenodd;clip-rule:evenodd;stroke-linejoin:round;stroke-miterlimit:2;"><rect id="MYX-Labs-Icon" serif:id="MYX Labs Icon" x="0" y="0" width="2133.33" height="2133.33" style="fill:none;"/><clipPath id="_clip1"><rect x="0" y="0" width="2133.33" height="2133.33"/></clipPath><g clip-path="url(#_clip1)"><g><rect x="0" y="-0" width="2133.33" height="2133.33" style="fill:#e63636;"/><path d="M1871.4,2133.33l-266.121,-262.088l0,-416.814l-14.203,-0l-274.274,678.902l-496.178,0l-274.593,-681.145l-14.203,0l0,419.057l-266.12,262.088l0,-1109.33l339.378,0l454.498,1109.33l17.94,0l454.498,-1109.33l339.378,0l-0,1109.33Zm-628.762,-757.867l95.106,-354.938l-354.939,-95.106l-95.105,354.939l354.938,95.105Zm-33.478,-280.7l-152.117,-40.76l-40.759,152.117l152.116,40.759l40.76,-152.116Zm-446.4,-104.442l259.834,-259.833l-259.834,-259.834l-259.833,259.834l259.833,259.833Zm1068.98,-303.941l-183.729,-318.229l-318.23,183.73l183.73,318.229l318.229,-183.73Zm-957.621,44.108l-111.357,-111.358l-111.357,111.358l111.357,111.357l111.357,-111.357Zm735.463,-218.92l-136.384,78.741l78.742,136.384l136.384,-78.741l-78.742,-136.384Zm-985.329,-77.888l-183.73,-318.23l-318.23,183.73l183.73,318.229l318.23,-183.729Zm432.346,109.943l318.229,-183.73l-183.73,-318.229l-318.229,183.729l183.73,318.23Zm-654.505,-284.756l-136.384,78.742l78.742,136.384l136.384,-78.742l-78.742,-136.384Zm829.317,62.598l-78.741,-136.384l-136.384,78.741l78.741,136.384l136.384,-78.741Z" style="fill:#fff;"/></g><g><path d="M265.712,2133.33l-265.712,0l0,-2133.33l2133.33,-0l0,2133.33l-261.929,0l-0,-1109.33l-339.378,0l-454.498,1109.33l-17.94,0l-454.498,-1109.33l-339.378,0l0,1109.33Zm554.916,0l-554.916,0l266.12,-262.088l0,-419.057l14.203,0l274.593,681.145Zm1050.78,0l-554.598,0l274.274,-678.902l14.203,-0l0,416.814l266.121,262.088Zm-628.762,-757.867l95.106,-354.938l-354.939,-95.106l-95.105,354.939l354.938,95.105Zm-33.478,-280.7l-152.117,-40.76l-40.759,152.117l152.116,40.759l40.76,-152.116Zm-446.4,-104.442l259.834,-259.833l-259.834,-259.834l-259.833,259.834l259.833,259.833Zm1068.98,-303.941l-183.729,-318.229l-318.23,183.73l183.73,318.229l318.229,-183.73Zm-957.621,44.108l-111.357,-111.358l-111.357,111.358l111.357,111.357l111.357,-111.357Zm735.463,-218.92l-136.384,78.741l78.742,136.384l136.384,-78.741l-78.742,-136.384Zm-985.329,-77.888l-183.73,-318.23l-318.23,183.73l183.73,318.229l318.23,-183.729Zm432.346,109.943l318.229,-183.73l-183.73,-318.229l-318.229,183.729l183.73,318.23Zm-654.505,-284.756l-136.384,78.742l78.742,136.384l136.384,-78.742l-78.742,-136.384Zm829.317,62.598l-78.741,-136.384l-136.384,78.741l78.741,136.384l136.384,-78.741Z" style="fill:#e63636;"/></g></g></svg>