<?xml version="1.0" encoding="UTF-8" standalone="no"?><!DOCTYPE svg PUBLIC "-//W3C//DTD SVG 1.1//EN" "http://www.w3.org/Graphics/SVG/1.1/DTD/svg11.dtd"><svg width="100%" height="100%" viewBox="0 0 1600 1600" version="1.1" xmlns="http://www.w3.org/2000/svg" xmlns:xlink="http://www.w3.org/1999/xlink" xml:space="preserve" xmlns:serif="http://www.serif.com/" style="fill-rule:evenodd;clip-rule:evenodd;stroke-linejoin:round;stroke-miterlimit:2;"><path d="M199.284,1600l-199.284,0l0,-1600l1600,0l-0,1600l-196.447,0l-0,-831.999l-254.534,-0l-340.873,831.999l-13.455,0l-340.873,-831.999l-254.534,-0l0,831.999Zm416.187,0l-416.187,0l199.59,-196.566l0,-314.293l10.653,0l205.944,510.859Zm788.082,0l-415.949,0l205.706,-509.177l10.653,0l-0,312.611l199.59,196.566Zm-471.571,-568.4l71.329,-266.204l-266.204,-71.329l-71.329,266.204l266.204,71.329Zm-25.109,-210.526l-114.087,-30.569l-30.57,114.087l114.087,30.57l30.57,-114.088Zm-334.8,-78.331l194.875,-194.875l-194.875,-194.875l-194.875,194.875l194.875,194.875Zm801.734,-227.956l-137.797,-238.672l-238.672,137.798l137.797,238.672l238.672,-137.798Zm-718.216,33.081l-83.518,-83.518l-83.517,83.518l83.517,83.518l83.518,-83.518Zm551.597,-164.19l-102.288,59.056l59.056,102.288l102.288,-59.056l-59.056,-102.288Zm-738.997,-58.416l-137.797,-238.672l-238.672,137.797l137.797,238.672l238.672,-137.797Zm324.26,82.457l238.672,-137.797l-137.798,-238.672l-238.672,137.797l137.798,238.672Zm-490.879,-213.566l-102.288,59.056l59.056,102.288l102.288,-59.056l-59.056,-102.288Zm621.988,46.948l-59.056,-102.288l-102.288,59.056l59.056,102.288l102.288,-59.056Z"/></svg>