<?xml version="1.0" encoding="UTF-8" standalone="no"?><!DOCTYPE svg PUBLIC "-//W3C//DTD SVG 1.1//EN" "http://www.w3.org/Graphics/SVG/1.1/DTD/svg11.dtd"><svg width="100%" height="100%" viewBox="0 0 841 176" version="1.1" xmlns="http://www.w3.org/2000/svg" xmlns:xlink="http://www.w3.org/1999/xlink" xml:space="preserve" xmlns:serif="http://www.serif.com/" style="fill-rule:evenodd;clip-rule:evenodd;stroke-linejoin:round;stroke-miterlimit:2;"><path d="M281.858,175.097l-0,-175.097l161.235,0l0,32.344l-128.891,0l0,38.911l103.6,-0l-0,32.587l-103.6,0l0,38.911l128.891,-0l0,32.344l-161.235,0Zm383.268,0l0,-32.344l139.835,-0c0.811,-0 1.5,-0.284 2.067,-0.851c0.568,-0.568 0.851,-1.257 0.851,-2.067l0,-33.317c0,-0.811 -0.283,-1.46 -0.851,-1.946c-0.567,-0.486 -1.256,-0.73 -2.067,-0.73l-106.031,0c-6.161,0 -11.795,-1.54 -16.902,-4.62c-5.107,-3.081 -9.201,-7.174 -12.281,-12.281c-3.08,-5.107 -4.621,-10.822 -4.621,-17.145l0,-35.992c0,-6.161 1.541,-11.795 4.621,-16.902c3.08,-5.107 7.174,-9.201 12.281,-12.281c5.107,-3.081 10.741,-4.621 16.902,-4.621l141.294,0l-0,32.344l-139.835,0c-0.811,0 -1.5,0.284 -2.067,0.852c-0.567,0.567 -0.851,1.256 -0.851,2.067l-0,33.317c-0,0.81 0.284,1.459 0.851,1.945c0.567,0.487 1.256,0.73 2.067,0.73l106.031,-0c6.161,-0 11.795,1.54 16.902,4.62c5.107,3.081 9.201,7.175 12.281,12.282c3.081,5.107 4.621,10.822 4.621,17.145l-0,35.992c-0,6.161 -1.54,11.795 -4.621,16.902c-3.08,5.107 -7.174,9.2 -12.281,12.281c-5.107,3.08 -10.741,4.62 -16.902,4.62l-141.294,0Zm-164.64,0c-6.16,0 -11.794,-1.54 -16.901,-4.62c-5.107,-3.081 -9.201,-7.174 -12.281,-12.281c-3.081,-5.107 -4.621,-10.741 -4.621,-16.902l-0,-107.49c-0,-6.161 1.54,-11.795 4.621,-16.902c3.08,-5.107 7.174,-9.201 12.281,-12.281c5.107,-3.081 10.741,-4.621 16.901,-4.621l107.491,0c5.35,0 10.335,1.256 14.956,3.769c4.621,2.513 8.593,5.878 11.916,10.093c3.324,4.215 5.877,13.456 7.174,18.482l-134.727,0c-2.432,0 -4.459,0.811 -6.08,2.432c-1.621,1.622 -2.432,3.648 -2.432,6.08l0,93.385c0,2.432 0.811,4.459 2.432,6.08c1.621,1.621 3.648,2.432 6.08,2.432l102.383,-0l-0,-25.049l31.615,0l-0,29.426c-0.973,5.026 -3.081,9.687 -6.323,13.984c-3.243,4.296 -7.215,7.701 -11.917,10.214c-4.701,2.513 -9.727,3.769 -15.077,3.769l-107.491,0Zm-500.486,0l-0,-175.097l217.899,0c6.161,0 11.795,1.54 16.902,4.621c5.107,3.08 9.2,7.174 12.281,12.281c3.08,5.107 4.62,10.741 4.62,16.902l0,141.293l-32.344,0l-0,-139.834c-0,-0.811 -0.284,-1.5 -0.851,-2.067c-0.568,-0.568 -1.257,-0.852 -2.067,-0.852l-77.335,0l0,142.753l-32.344,0l-0,-139.834c-0,-0.811 -0.243,-1.5 -0.73,-2.067c-0.486,-0.568 -1.135,-0.852 -1.945,-0.852l-71.985,0l0,142.753l-32.101,0Zm640.424,-87.548l0,-31.139l-31.138,0l-0,31.139l31.138,-0Zm-59.486,-0l-0,-31.139l-31.139,0l0,31.139l31.139,-0Z"/></svg>