<?xml version="1.0" encoding="UTF-8" standalone="no"?><!DOCTYPE svg PUBLIC "-//W3C//DTD SVG 1.1//EN" "http://www.w3.org/Graphics/SVG/1.1/DTD/svg11.dtd"><svg width="100%" height="100%" viewBox="0 0 743 220" version="1.1" xmlns="http://www.w3.org/2000/svg" xmlns:xlink="http://www.w3.org/1999/xlink" xml:space="preserve" xmlns:serif="http://www.serif.com/" style="fill-rule:evenodd;clip-rule:evenodd;stroke-linejoin:round;stroke-miterlimit:2;"><path d="M78.346,219.598c-13.235,-0 -24.763,-2.277 -34.583,-6.832c-9.82,-4.554 -17.968,-10.709 -24.443,-18.465c-6.476,-7.757 -11.315,-16.438 -14.517,-26.045c-3.202,-9.606 -4.803,-19.462 -4.803,-29.566c-0,-10.105 1.601,-19.996 4.803,-29.674c3.202,-9.678 8.077,-18.395 14.623,-26.151c6.547,-7.756 14.802,-13.947 24.764,-18.573c9.962,-4.625 21.561,-6.938 34.797,-6.938c10.389,0 19.32,1.317 26.791,3.95c7.472,2.633 13.734,6.013 18.786,10.14c5.053,4.127 9.109,8.504 12.169,13.129c3.059,4.625 5.372,9.002 6.938,13.129c1.565,4.127 2.633,7.507 3.202,10.14c0.569,2.633 0.854,3.949 0.854,3.949l-29.033,0c-0,0 -0.249,-0.96 -0.747,-2.882c-0.499,-1.921 -1.53,-4.305 -3.096,-7.151c-1.565,-2.847 -3.807,-5.693 -6.724,-8.539c-2.918,-2.847 -6.725,-5.23 -11.422,-7.152c-4.696,-1.921 -10.531,-2.882 -17.505,-2.882c-8.397,0 -15.69,1.566 -21.881,4.697c-6.191,3.131 -11.35,7.329 -15.477,12.595c-4.128,5.266 -7.187,11.172 -9.18,17.719c-1.992,6.546 -2.989,13.235 -2.989,20.067c0,9.25 1.851,18.145 5.551,26.684c3.7,8.539 9.215,15.513 16.544,20.921c7.33,5.408 16.403,8.112 27.219,8.112c12.524,0 22.451,-3.415 29.78,-10.247c7.329,-6.831 11.492,-15.939 12.488,-27.325l-43.122,0l-0,-23.055l71.302,-0l-0,11.741c-0,16.367 -3.131,30.065 -9.394,41.094c-6.262,11.03 -14.765,19.356 -25.51,24.977c-10.745,5.622 -22.807,8.433 -36.185,8.433Zm527.291,-0c-7.685,-0 -14.019,-1.139 -19,-3.416c-4.981,-2.277 -8.859,-5.266 -11.634,-8.966c-2.776,-3.7 -4.732,-7.756 -5.871,-12.168c-1.139,-4.412 -1.708,-8.753 -1.708,-13.022l0,-54.864l-19.426,-0l6.191,-22.842l13.235,-0l0,-23.932l28.393,-8.178l-0,32.11l25.404,-0l-0,22.842l-25.404,-0l-0,54.223c-0,10.105 5.693,15.157 17.078,15.157c2.704,0 5.23,-0.178 7.578,-0.534c2.349,-0.355 3.523,-0.533 3.523,-0.533l-0,22.201c-0,0 -1.815,0.321 -5.444,0.961c-3.629,0.64 -7.934,0.961 -12.915,0.961Zm-307.408,-0c-12.382,-0 -22.914,-2.776 -31.595,-8.326c-8.682,-5.55 -15.264,-12.773 -19.747,-21.668c-4.483,-8.895 -6.724,-18.466 -6.724,-28.713c-0,-10.247 2.241,-19.818 6.724,-28.713c4.483,-8.894 11.065,-16.117 19.747,-21.668c8.681,-5.55 19.213,-8.325 31.595,-8.325c12.524,-0 23.091,2.775 31.701,8.325c8.61,5.551 15.157,12.774 19.64,21.668c4.483,8.895 6.725,18.466 6.725,28.713c-0,10.247 -2.242,19.818 -6.725,28.713c-4.483,8.895 -11.03,16.118 -19.64,21.668c-8.61,5.55 -19.177,8.326 -31.701,8.326Zm-132.784,-2.135l0,-113.143l28.179,-0l0,15.583l1.068,0c1.992,-4.411 5.266,-8.467 9.82,-12.168c4.554,-3.7 11.385,-5.55 20.494,-5.55c2.846,-0 5.194,0.178 7.044,0.534c1.851,0.355 2.776,0.533 2.776,0.533l-0,27.539c-0,-0 -1.032,-0.142 -3.096,-0.427c-2.063,-0.285 -4.59,-0.427 -7.578,-0.427c-9.963,-0 -17.505,2.775 -22.629,8.326c-5.123,5.55 -7.685,14.516 -7.685,26.898l-0,52.302l-28.393,-0Zm477.55,-0l0,-119.526l28.393,-55.46l-0,78.067l1.281,-0c1.138,-1.993 2.917,-4.448 5.337,-7.365c2.419,-2.918 5.764,-5.479 10.033,-7.685c4.27,-2.206 9.678,-3.309 16.225,-3.309c8.681,-0 15.832,1.957 21.454,5.87c5.622,3.914 9.82,9.073 12.595,15.478c2.775,6.404 4.163,13.306 4.163,20.707l0,73.223l-28.392,-0l-0,-69.38c-0,-6.12 -1.708,-11.386 -5.124,-15.798c-3.416,-4.412 -8.539,-6.618 -15.37,-6.618c-5.266,0 -9.536,1.317 -12.809,3.95c-3.273,2.633 -5.657,6.013 -7.152,10.14c-1.494,4.127 -2.241,8.468 -2.241,13.022l-0,64.684l-28.393,-0Zm-245.499,-0l-35.438,-113.143l28.393,-0l22.629,77.706l24.123,-77.706l25.831,-0l24.123,77.706l25.606,-90.46l31.441,-6.372l-41.677,132.269l-30.1,-0l-22.202,-71.942l-22.415,71.942l-30.314,-0Zm-99.267,-21.561c6.404,-0 11.776,-1.637 16.117,-4.91c4.341,-3.274 7.65,-7.579 9.927,-12.916c2.277,-5.337 3.416,-11.065 3.416,-17.185c-0,-6.262 -1.139,-12.026 -3.416,-17.291c-2.277,-5.266 -5.586,-9.536 -9.927,-12.809c-4.341,-3.273 -9.713,-4.91 -16.117,-4.91c-6.262,-0 -11.599,1.637 -16.011,4.91c-4.412,3.273 -7.757,7.543 -10.034,12.809c-2.277,5.265 -3.415,11.029 -3.415,17.291c-0,6.12 1.138,11.848 3.415,17.185c2.277,5.337 5.622,9.642 10.034,12.916c4.412,3.273 9.749,4.91 16.011,4.91Zm317.273,-173.197l-44.046,-7.502l98.564,-15.203l-46.976,87.973l8.385,-49.225c-26.423,12.638 -67.014,26.744 -127.814,36.602c-76.828,12.457 -209.72,9.517 -330.564,9.603l-10.619,0.008l26.229,-21.692c-0,0 235.514,3.446 311.555,-8.883c53.134,-8.616 90.103,-20.502 115.286,-31.681Z" style="fill-rule:nonzero;"/></svg>