<?xml version="1.0" encoding="UTF-8" standalone="no"?>
<!DOCTYPE svg PUBLIC "-//W3C//DTD SVG 1.1//EN" "http://www.w3.org/Graphics/SVG/1.1/DTD/svg11.dtd">
<svg width="100%" height="100%" viewBox="0 0 1546 249" version="1.1" xmlns="http://www.w3.org/2000/svg" xmlns:xlink="http://www.w3.org/1999/xlink" xml:space="preserve" xmlns:serif="http://www.serif.com/" style="fill-rule:evenodd;clip-rule:evenodd;stroke-linejoin:round;stroke-miterlimit:2;">
	<g>
		<g>
			<path d="M224.582,245.917l41.339,-193.271l-74.199,0l10.6,-49.819l246.019,-0l-76.225,49.819l-42.949,0l-40.986,193.271l-63.599,0Z" style="fill-rule:nonzero;" />
			<path d="M382.166,245.917l51.94,-243.09l125.432,-0c18.608,-0 33.036,1.943 43.283,5.83c10.246,3.886 17.372,9.422 21.376,16.606c4.004,7.184 6.007,15.959 6.007,26.323c-0,3.298 -0.177,6.949 -0.53,10.953c-0.354,4.005 -0.825,8.127 -1.414,12.367c-0.589,4.24 -1.472,8.48 -2.65,12.72c-2.12,8.244 -4.357,15.723 -6.713,22.436c-2.356,6.713 -5.241,12.661 -8.657,17.843c-3.415,5.182 -7.891,9.776 -13.426,13.78c-5.536,4.004 -12.425,7.302 -20.67,9.893l23.32,94.339l-64.659,0l-17.667,-86.919l-52.999,0l-18.727,86.919l-63.246,0Zm91.513,-131.438l43.813,-0c8.479,-0 15.369,-0.53 20.669,-1.59c5.3,-1.06 9.481,-2.768 12.543,-5.124c3.063,-2.355 5.536,-5.653 7.42,-9.893c1.885,-4.24 3.534,-9.54 4.947,-15.9c0.707,-3.533 1.296,-6.831 1.767,-9.893c0.471,-3.062 0.706,-5.653 0.706,-7.773c0,-3.769 -0.942,-6.831 -2.826,-9.187c-1.885,-2.355 -5.182,-4.063 -9.894,-5.123c-4.711,-1.06 -11.424,-1.59 -20.139,-1.59l-44.873,0l-14.133,66.073Z" style="fill-rule:nonzero;" />
			<path d="M599.464,245.917l138.858,-243.09l85.153,-0l35.333,243.09l-61.833,0l-7.42,-48.053l-98.579,0l-27.56,48.053l-63.952,0Zm115.185,-93.632l70.313,-0l-13.073,-97.166l-2.827,0l-54.413,97.166Z" style="fill-rule:nonzero;" />
			<path d="M980.706,248.744c-22.377,-0 -40.633,-1.767 -54.766,-5.3c-14.133,-3.533 -24.615,-9.658 -31.446,-18.373c-6.831,-8.716 -10.247,-20.965 -10.247,-36.747c0,-8.244 0.707,-17.666 2.12,-28.266c1.414,-10.6 3.769,-22.495 7.067,-35.686c4.946,-21.435 9.775,-39.514 14.486,-54.236c4.711,-14.722 10.129,-26.677 16.253,-35.863c6.125,-9.187 13.663,-16.253 22.614,-21.2c8.951,-4.946 20.021,-8.362 33.212,-10.246c13.191,-1.885 29.445,-2.827 48.76,-2.827c7.773,-0 16.017,0.236 24.733,0.707c8.715,0.471 17.019,1.177 24.91,2.12c7.891,0.942 14.663,2.002 20.316,3.18l-9.187,44.872c-8.715,-0.942 -16.37,-1.648 -22.966,-2.12c-6.595,-0.471 -12.249,-0.824 -16.96,-1.06c-4.711,-0.235 -8.715,-0.353 -12.013,-0.353c-12.249,0 -22.436,0.412 -30.563,1.237c-8.126,0.824 -14.781,2.532 -19.963,5.123c-5.182,2.591 -9.422,6.654 -12.72,12.19c-3.298,5.535 -6.242,13.073 -8.833,22.613c-2.591,9.54 -5.418,21.494 -8.48,35.863c-2.355,11.071 -4.24,20.787 -5.653,29.15c-1.414,8.362 -2.12,15.252 -2.12,20.669c-0,8.245 1.766,14.251 5.3,18.02c3.533,3.769 9.304,6.242 17.313,7.42c8.009,1.178 18.844,1.767 32.506,1.767c8.245,-0 17.49,-0.354 27.737,-1.06c10.246,-0.707 19.374,-1.531 27.383,-2.474l-9.894,45.933c-5.653,0.942 -12.425,1.826 -20.316,2.65c-7.891,0.825 -16.077,1.413 -24.557,1.767c-8.479,0.353 -16.488,0.53 -24.026,0.53Z" style="fill-rule:nonzero;" />
			<path d="M1079.64,245.917l51.94,-243.09l221.184,-0l-63.976,46.992l-104.209,0l-10.953,50.173l104.232,0l-9.54,46.286l-104.232,0l-11.307,52.646l110.812,0l31.125,46.993l-215.076,0Z" style="fill-rule:nonzero;" />
			<path d="M1297.29,245.917l51.939,-243.09l125.432,-0c18.609,-0 33.037,1.943 43.283,5.83c10.247,3.886 17.372,9.422 21.377,16.606c4.004,7.184 6.006,15.959 6.006,26.323c0,3.298 -0.177,6.949 -0.53,10.953c-0.353,4.005 -0.824,8.127 -1.413,12.367c-0.589,4.24 -1.472,8.48 -2.65,12.72c-2.12,8.244 -4.358,15.723 -6.713,22.436c-2.356,6.713 -5.241,12.661 -8.657,17.843c-3.415,5.182 -7.891,9.776 -13.426,13.78c-5.536,4.004 -12.426,7.302 -20.67,9.893l19.433,94.339l-64.659,0l-13.78,-86.919l-53,0l-18.726,86.919l-63.246,0Zm91.512,-131.438l43.813,-0c8.48,-0 15.37,-0.53 20.67,-1.59c5.3,-1.06 9.481,-2.768 12.543,-5.124c3.062,-2.355 5.536,-5.653 7.42,-9.893c1.884,-4.24 3.533,-9.54 4.947,-15.9c0.706,-3.533 1.295,-6.831 1.766,-9.893c0.471,-3.062 0.707,-5.653 0.707,-7.773c-0,-3.769 -0.942,-6.831 -2.827,-9.187c-1.884,-2.355 -5.182,-4.063 -9.893,-5.123c-4.711,-1.06 -11.424,-1.59 -20.14,-1.59l-44.873,0l-14.133,66.073Z" style="fill-rule:nonzero;" />
		</g>
		<g>
			<g>
				<g>
					<path d="M207.864,244.058l-197.194,-48.128l-10.67,48.128l207.864,-0Z" style="" />
					<path d="M188.361,4.686l-125.274,-0l-17.125,48.128l142.399,-48.128Z" style="" />
					<g>
						<path d="M224.784,124.372l-97.574,57.831l25.642,-115.663l71.932,57.832Z" style="" />
					</g>
				</g>
				<g>
					<path d="M98.937,151.14l-79.299,-0l-4.013,18.101l79.299,0l4.013,-18.101Z" style="" />
					<path d="M90.709,99.994l-79.298,0l-4.013,18.102l79.299,-0l4.012,-18.102Z" style="" />
					<path d="M121.399,125.567l-79.299,0l-4.013,18.102l79.299,-0l4.013,-18.102Z" style="" />
					<path d="M126.368,74.422l-79.299,-0l-4.013,18.101l79.299,0l4.013,-18.101Z" style="" />
				</g>
			</g>
		</g>
	</g>
</svg>
