<svg width="100%" height="100%" viewBox="0 0 411 70" version="1.1" xmlns="http://www.w3.org/2000/svg" xmlns:xlink="http://www.w3.org/1999/xlink" xml:space="preserve" xmlns:serif="http://www.serif.com/" style="fill-rule:evenodd;clip-rule:evenodd;stroke-linejoin:round;stroke-miterlimit:2;">
	<g transform="matrix(0.566889,0,0,0.566889,-845.835,-64.3526)">
		<path d="M1492.06,211.365L1492.06,196.444L1523.86,196.444L1523.86,203.293L1529.25,208.919L1568.87,208.919L1574.25,203.293L1574.25,192.774L1568.63,186.904L1516.04,186.904L1493.04,163.665L1493.04,137.002L1516.28,113.519L1579.88,113.519L1603.61,137.491L1603.61,152.413L1571.81,152.413L1571.81,145.563L1566.43,139.937L1530.22,139.937L1524.84,145.563L1524.84,155.103L1530.47,160.974L1583.06,160.974L1606.05,184.213L1606.05,211.854L1582.82,235.337L1515.79,235.337L1492.06,211.365Z" style="fill-rule:nonzero;" />
		<path d="M1619.51,152.924L1619.51,113.519L1651.8,113.519L1651.8,137.482L1619.51,152.924ZM1651.8,152.251L1651.8,235.337L1619.51,235.337L1619.51,167.692L1651.8,152.251Z" />
		<path d="M1671.37,113.519L1701.21,113.519L1701.21,133.577L1721.02,113.519L1751.85,113.519L1768.48,130.397L1785.11,113.519L1827.68,113.519L1853.85,139.937L1853.85,235.337L1821.56,235.337L1821.56,149.477L1813.24,140.916L1792.7,140.916L1779.73,153.88L1779.73,235.337L1748.42,235.337L1748.42,148.988L1740.59,140.916L1725.92,140.916L1703.66,163.42L1703.66,235.337L1671.37,235.337L1671.37,113.519Z" style="fill-rule:nonzero;" />
		<g transform="matrix(1,0,0,1,-52.1835,0)">
			<path d="M1920.14,133.333L1908.78,120.966L1916.23,113.519L1945.83,113.519L1964.17,131.865L1982.27,113.519L2022.14,113.519L2045.87,137.247L2045.87,235.337L2023.12,235.337L2023.12,144.34L2012.12,133.333L1987.41,133.333L1971.51,149.233L1971.51,235.337L1949.5,235.337L1949.5,144.096L1938.73,133.333L1920.14,133.333Z" style="fill-rule:nonzero;" />
		</g>
		<g transform="matrix(1,0,0,1,-52.1835,0)">
			<path d="M2064.22,212.099L2064.22,137.002L2087.7,113.519L2151.55,113.519L2175.03,137.002L2175.03,181.522L2086.97,181.522L2086.97,205.005L2097.73,215.768L2141.52,215.768L2152.28,205.25L2152.28,196.933L2174.79,196.933L2174.79,212.099L2151.79,235.337L2087.46,235.337L2064.22,212.099ZM2152.28,163.665L2152.28,143.851L2141.27,133.088L2097.98,133.088L2086.97,143.851L2086.97,163.665L2152.28,163.665Z" style="fill-rule:nonzero;" />
		</g>
		<g transform="matrix(1,0,0,1,-52.1835,0)">
			<path d="M2193.38,113.519L2215.15,113.519L2215.15,134.8L2236.18,113.519L2268.72,113.519L2268.72,133.333L2241.32,133.333L2216.13,158.773L2216.13,235.337L2193.38,235.337L2193.38,113.519Z" style="fill-rule:nonzero;" />
		</g>
	</g>
</svg>
