<svg width="100%" height="100%" viewBox="0 0 254 50" version="1.1" xmlns="http://www.w3.org/2000/svg" xmlns:xlink="http://www.w3.org/1999/xlink" xml:space="preserve" xmlns:serif="http://www.serif.com/" style="fill-rule:evenodd;clip-rule:evenodd;stroke-linejoin:round;stroke-miterlimit:2;">
	<g transform="matrix(1,0,0,1,-236.005,-445.028)">
		<g transform="matrix(0.0976014,0,0,0.0976014,236.005,445.028)">
			<path d="M142.2,348.589C129.068,331.059 121,309.536 121,286C121,228.109 168.109,181 226,181C234.291,181 241,174.291 241,166L241,76C241,67.709 234.291,61 226,61C101.928,61 0,161.928 0,286C0,342.646 22.2,394.322 56.873,433.916L142.2,348.589Z" style="fill-rule:nonzero;" />
			<path d="M226,512C350.072,512 451,410.072 451,286C451,277.709 444.291,271 436,271L346,271C337.709,271 331,277.709 331,286C331,343.891 283.891,391 226,391C202.464,391 180.941,382.932 163.411,369.8L78.084,455.127C117.678,489.8 169.354,512 226,512Z" style="fill-rule:nonzero;" />
			<path d="M151,286C151,327.353 184.647,361 226,361C267.353,361 301,327.353 301,286C301,244.647 267.353,211 226,211C184.647,211 151,244.647 151,286Z" style="fill-rule:nonzero;" />
			<path d="M351.001,15C351.001,6.709 344.292,0 336.001,0L316,0C307.709,0 301,6.709 301,15L301,211L351.001,211L351.001,15Z" style="fill-rule:nonzero;" />
			<path d="M497,121L461.001,121L461.001,211L497,211C505.286,211 512,204.284 512,196L512,136C512,127.714 505.286,121 497,121Z" style="fill-rule:nonzero;" />
			<path d="M381.001,211L431,211L431,76C431,67.714 424.286,61 416,61L381.001,61L381.001,211Z" style="fill-rule:nonzero;" />
		</g>
		<g transform="matrix(0.69004,0,0,0.69004,216.341,216.755)">
			<g transform="matrix(73.9905,0,0,73.9905,109,393)">
				<path d="M0.139,-0.161C0.144,-0.142 0.152,-0.128 0.163,-0.118C0.175,-0.108 0.188,-0.101 0.202,-0.097C0.216,-0.094 0.229,-0.092 0.242,-0.092C0.268,-0.092 0.288,-0.097 0.303,-0.107C0.318,-0.118 0.326,-0.131 0.326,-0.147C0.326,-0.16 0.321,-0.171 0.311,-0.178C0.301,-0.185 0.288,-0.191 0.272,-0.195C0.257,-0.2 0.241,-0.204 0.224,-0.209C0.206,-0.214 0.187,-0.219 0.166,-0.225C0.146,-0.231 0.127,-0.239 0.109,-0.25C0.091,-0.261 0.076,-0.274 0.065,-0.291C0.054,-0.308 0.048,-0.328 0.048,-0.353C0.048,-0.384 0.057,-0.411 0.074,-0.434C0.091,-0.457 0.115,-0.475 0.145,-0.488C0.175,-0.501 0.209,-0.507 0.246,-0.507C0.291,-0.507 0.329,-0.498 0.362,-0.479C0.395,-0.46 0.418,-0.433 0.433,-0.397L0.334,-0.365C0.329,-0.374 0.322,-0.382 0.313,-0.389C0.304,-0.396 0.294,-0.4 0.281,-0.403C0.269,-0.406 0.257,-0.408 0.244,-0.408C0.223,-0.408 0.205,-0.404 0.19,-0.395C0.175,-0.386 0.168,-0.374 0.168,-0.358C0.168,-0.35 0.17,-0.343 0.175,-0.337C0.18,-0.331 0.187,-0.326 0.196,-0.322C0.205,-0.319 0.215,-0.315 0.227,-0.312C0.239,-0.309 0.252,-0.306 0.265,-0.302C0.286,-0.296 0.307,-0.289 0.328,-0.282C0.349,-0.275 0.369,-0.267 0.386,-0.256C0.404,-0.245 0.418,-0.231 0.428,-0.214C0.439,-0.197 0.445,-0.175 0.446,-0.148C0.446,-0.119 0.438,-0.093 0.421,-0.069C0.404,-0.046 0.38,-0.027 0.349,-0.013C0.318,0 0.282,0.007 0.239,0.007C0.19,0.007 0.147,-0.004 0.112,-0.025C0.077,-0.046 0.053,-0.081 0.04,-0.128L0.139,-0.161Z" style="fill-rule:nonzero;" />
			</g>
			<g transform="matrix(73.9905,0,0,73.9905,141.926,393)">
				<path d="M0.083,-0.5L0.196,-0.5L0.196,-0L0.083,-0L0.083,-0.5ZM0.14,-0.576C0.119,-0.576 0.102,-0.583 0.088,-0.597C0.074,-0.611 0.067,-0.628 0.067,-0.647C0.067,-0.668 0.074,-0.685 0.088,-0.699C0.102,-0.713 0.119,-0.72 0.14,-0.72C0.16,-0.72 0.177,-0.713 0.191,-0.699C0.205,-0.685 0.212,-0.668 0.212,-0.647C0.212,-0.628 0.205,-0.611 0.191,-0.597C0.177,-0.583 0.16,-0.576 0.14,-0.576Z" style="fill-rule:nonzero;" />
			</g>
			<g transform="matrix(73.9905,0,0,73.9905,159.535,393)">
				<path d="M0.067,-0.5L0.169,-0.5L0.177,-0.453C0.194,-0.47 0.213,-0.483 0.236,-0.492C0.259,-0.502 0.283,-0.507 0.31,-0.507C0.343,-0.507 0.373,-0.5 0.4,-0.486C0.427,-0.473 0.448,-0.453 0.465,-0.427C0.482,-0.453 0.506,-0.473 0.536,-0.486C0.566,-0.5 0.598,-0.507 0.633,-0.507C0.672,-0.507 0.706,-0.499 0.735,-0.482C0.764,-0.466 0.787,-0.442 0.803,-0.41C0.819,-0.379 0.827,-0.339 0.827,-0.292L0.827,-0L0.713,-0L0.713,-0.277C0.713,-0.319 0.704,-0.351 0.686,-0.372C0.669,-0.393 0.643,-0.404 0.609,-0.404C0.574,-0.404 0.547,-0.393 0.528,-0.371C0.509,-0.35 0.499,-0.318 0.499,-0.275L0.499,-0L0.386,-0L0.386,-0.277C0.386,-0.319 0.378,-0.351 0.361,-0.372C0.345,-0.393 0.32,-0.404 0.286,-0.404C0.251,-0.404 0.225,-0.393 0.207,-0.371C0.189,-0.35 0.18,-0.318 0.18,-0.276L0.18,-0L0.067,-0L0.067,-0.5Z" style="fill-rule:nonzero;" />
			</g>
			<g transform="matrix(73.9905,0,0,73.9905,222.057,393)">
				<path d="M0.291,0.007C0.241,0.007 0.197,-0.004 0.159,-0.026C0.122,-0.048 0.092,-0.079 0.071,-0.118C0.05,-0.157 0.04,-0.203 0.04,-0.254C0.04,-0.303 0.05,-0.346 0.071,-0.384C0.092,-0.422 0.12,-0.452 0.157,-0.474C0.194,-0.496 0.235,-0.507 0.282,-0.507C0.329,-0.507 0.371,-0.497 0.407,-0.476C0.443,-0.455 0.471,-0.426 0.491,-0.389C0.512,-0.352 0.522,-0.31 0.522,-0.261C0.522,-0.253 0.522,-0.244 0.521,-0.235C0.52,-0.226 0.519,-0.217 0.518,-0.207L0.162,-0.207C0.165,-0.184 0.173,-0.163 0.184,-0.146C0.196,-0.129 0.211,-0.116 0.229,-0.107C0.247,-0.098 0.268,-0.093 0.291,-0.093C0.319,-0.093 0.344,-0.099 0.366,-0.11C0.389,-0.121 0.404,-0.136 0.413,-0.155L0.512,-0.122C0.492,-0.082 0.462,-0.05 0.423,-0.027C0.384,-0.004 0.34,0.007 0.291,0.007ZM0.399,-0.299C0.398,-0.32 0.393,-0.338 0.382,-0.355C0.371,-0.372 0.357,-0.385 0.34,-0.394C0.323,-0.404 0.303,-0.409 0.282,-0.409C0.263,-0.409 0.246,-0.404 0.229,-0.395C0.212,-0.386 0.198,-0.373 0.186,-0.356C0.175,-0.34 0.167,-0.321 0.164,-0.299L0.399,-0.299Z" style="fill-rule:nonzero;" />
			</g>
			<g transform="matrix(73.9905,0,0,73.9905,259.645,393)">
				<path d="M0.099,-0.5L0.099,-0.64L0.214,-0.64L0.214,-0.5L0.331,-0.5L0.331,-0.401L0.214,-0.401L0.214,-0.179C0.214,-0.149 0.22,-0.128 0.231,-0.116C0.242,-0.105 0.257,-0.098 0.275,-0.097C0.294,-0.096 0.312,-0.097 0.331,-0.1L0.331,-0.004C0.302,0.002 0.274,0.004 0.246,0.001C0.219,-0.001 0.194,-0.008 0.172,-0.021C0.15,-0.034 0.132,-0.054 0.119,-0.079C0.106,-0.104 0.099,-0.138 0.099,-0.179L0.099,-0.401L0.029,-0.401L0.029,-0.5L0.099,-0.5Z" style="fill-rule:nonzero;" />
			</g>
			<g transform="matrix(73.9905,0,0,73.9905,283.396,393)">
				<path d="M0.067,-0.5L0.169,-0.5L0.178,-0.438C0.191,-0.455 0.207,-0.468 0.225,-0.479C0.243,-0.49 0.262,-0.498 0.283,-0.502C0.304,-0.506 0.326,-0.505 0.347,-0.5L0.347,-0.396C0.33,-0.402 0.311,-0.403 0.291,-0.4C0.272,-0.397 0.254,-0.39 0.237,-0.378C0.22,-0.367 0.207,-0.35 0.196,-0.329C0.185,-0.308 0.18,-0.283 0.18,-0.252L0.18,-0L0.067,-0L0.067,-0.5Z" style="fill-rule:nonzero;" />
			</g>
			<g transform="matrix(73.9905,0,0,73.9905,307.738,393)">
				<path d="M0.083,-0.5L0.196,-0.5L0.196,-0L0.083,-0L0.083,-0.5ZM0.14,-0.576C0.119,-0.576 0.102,-0.583 0.088,-0.597C0.074,-0.611 0.067,-0.628 0.067,-0.647C0.067,-0.668 0.074,-0.685 0.088,-0.699C0.102,-0.713 0.119,-0.72 0.14,-0.72C0.16,-0.72 0.177,-0.713 0.191,-0.699C0.205,-0.685 0.212,-0.668 0.212,-0.647C0.212,-0.628 0.205,-0.611 0.191,-0.597C0.177,-0.583 0.16,-0.576 0.14,-0.576Z" style="fill-rule:nonzero;" />
			</g>
			<g transform="matrix(73.9905,0,0,73.9905,325.348,393)">
				<path d="M0.283,0.007C0.235,0.007 0.193,-0.004 0.156,-0.025C0.119,-0.047 0.091,-0.077 0.07,-0.115C0.05,-0.153 0.04,-0.197 0.04,-0.248C0.04,-0.299 0.05,-0.344 0.071,-0.383C0.092,-0.422 0.12,-0.452 0.157,-0.474C0.194,-0.496 0.237,-0.507 0.286,-0.507C0.337,-0.507 0.383,-0.495 0.423,-0.47C0.463,-0.446 0.492,-0.413 0.509,-0.372L0.406,-0.338C0.397,-0.359 0.382,-0.375 0.361,-0.387C0.34,-0.4 0.317,-0.406 0.29,-0.406C0.263,-0.406 0.24,-0.399 0.221,-0.386C0.202,-0.373 0.187,-0.355 0.176,-0.332C0.166,-0.309 0.161,-0.281 0.161,-0.249C0.161,-0.201 0.173,-0.163 0.196,-0.135C0.219,-0.108 0.251,-0.094 0.292,-0.094C0.318,-0.094 0.341,-0.1 0.362,-0.111C0.383,-0.123 0.399,-0.14 0.41,-0.161L0.511,-0.126C0.492,-0.085 0.461,-0.053 0.42,-0.029C0.379,-0.005 0.334,0.007 0.283,0.007Z" style="fill-rule:nonzero;" />
			</g>
			<g transform="matrix(73.9905,0,0,73.9905,363.083,393)">
				<path d="M0.139,-0.161C0.144,-0.142 0.152,-0.128 0.163,-0.118C0.175,-0.108 0.188,-0.101 0.202,-0.097C0.216,-0.094 0.229,-0.092 0.242,-0.092C0.268,-0.092 0.288,-0.097 0.303,-0.107C0.318,-0.118 0.326,-0.131 0.326,-0.147C0.326,-0.16 0.321,-0.171 0.311,-0.178C0.301,-0.185 0.288,-0.191 0.272,-0.195C0.257,-0.2 0.241,-0.204 0.224,-0.209C0.206,-0.214 0.187,-0.219 0.166,-0.225C0.146,-0.231 0.127,-0.239 0.109,-0.25C0.091,-0.261 0.076,-0.274 0.065,-0.291C0.054,-0.308 0.048,-0.328 0.048,-0.353C0.048,-0.384 0.057,-0.411 0.074,-0.434C0.091,-0.457 0.115,-0.475 0.145,-0.488C0.175,-0.501 0.209,-0.507 0.246,-0.507C0.291,-0.507 0.329,-0.498 0.362,-0.479C0.395,-0.46 0.418,-0.433 0.433,-0.397L0.334,-0.365C0.329,-0.374 0.322,-0.382 0.313,-0.389C0.304,-0.396 0.294,-0.4 0.281,-0.403C0.269,-0.406 0.257,-0.408 0.244,-0.408C0.223,-0.408 0.205,-0.404 0.19,-0.395C0.175,-0.386 0.168,-0.374 0.168,-0.358C0.168,-0.35 0.17,-0.343 0.175,-0.337C0.18,-0.331 0.187,-0.326 0.196,-0.322C0.205,-0.319 0.215,-0.315 0.227,-0.312C0.239,-0.309 0.252,-0.306 0.265,-0.302C0.286,-0.296 0.307,-0.289 0.328,-0.282C0.349,-0.275 0.369,-0.267 0.386,-0.256C0.404,-0.245 0.418,-0.231 0.428,-0.214C0.439,-0.197 0.445,-0.175 0.446,-0.148C0.446,-0.119 0.438,-0.093 0.421,-0.069C0.404,-0.046 0.38,-0.027 0.349,-0.013C0.318,0 0.282,0.007 0.239,0.007C0.19,0.007 0.147,-0.004 0.112,-0.025C0.077,-0.046 0.053,-0.081 0.04,-0.128L0.139,-0.161Z" style="fill-rule:nonzero;" />
			</g>
		</g>
	</g>
</svg>
